<?xml version="1.0" standalone="no"?>
<!DOCTYPE svg PUBLIC "-//W3C//DTD SVG 20010904//EN"
 "http://www.w3.org/TR/2001/REC-SVG-20010904/DTD/svg10.dtd">
<svg version="1.0" xmlns="http://www.w3.org/2000/svg"
 width="145.000000pt" height="82.000000pt" viewBox="0 0 145.000000 82.000000"
 preserveAspectRatio="xMidYMid meet">

<g transform="translate(0.000000,82.000000) scale(0.100000,-0.100000)"
fill="#000000" stroke="none">
<path d="M0 410 l0 -410 725 0 725 0 0 410 0 410 -725 0 -725 0 0 -410z m1355
310 c0 -13 -78 -15 -629 -18 -374 -1 -634 2 -639 7 -29 29 12 31 636 29 554
-3 632 -5 632 -18z m-1138 -201 c13 -12 18 -49 6 -49 -4 0 -17 10 -30 22 -19
18 -27 20 -48 10 -20 -9 -25 -19 -25 -46 0 -19 3 -41 6 -50 8 -21 63 -21 70
-1 7 18 34 20 34 3 0 -23 -34 -48 -65 -48 -52 0 -80 30 -80 85 0 39 5 51 29
72 30 26 72 27 103 2z m732 -16 c19 -21 22 -34 18 -66 -7 -53 -31 -77 -78 -77
-47 0 -79 36 -79 89 0 84 83 116 139 54z m156 27 c38 -14 59 -71 45 -116 -13
-38 -35 -54 -75 -54 -39 0 -62 16 -74 51 -17 51 1 102 44 119 27 12 30 12 60
0z m-805 -85 c0 -78 -2 -85 -20 -85 -18 0 -20 7 -20 85 0 78 2 85 20 85 18 0
20 -7 20 -85z m102 27 l38 -57 0 58 c0 50 2 57 20 57 18 0 20 -7 20 -85 0 -74
-2 -85 -17 -85 -10 0 -35 25 -58 58 l-40 57 -3 -57 c-2 -43 -7 -58 -17 -58
-12 0 -15 17 -15 85 0 74 2 85 18 85 10 0 33 -24 54 -58z m218 48 c0 -5 -18
-10 -40 -10 -36 0 -40 -2 -40 -25 0 -22 4 -25 40 -25 29 0 40 -4 40 -15 0 -11
-11 -15 -40 -15 -33 0 -40 -3 -40 -20 0 -17 7 -20 40 -20 29 0 40 -4 40 -15 0
-12 -13 -15 -55 -15 l-55 0 0 85 0 85 55 0 c30 0 55 -4 55 -10z m154 -12 c8
-13 7 -23 -2 -39 -8 -13 -10 -24 -5 -28 18 -12 21 -39 7 -60 -12 -17 -25 -21
-70 -21 l-54 0 0 85 0 86 56 -3 c41 -2 60 -8 68 -20z m446 -13 l0 -36 31 36
c17 19 40 35 51 35 17 0 16 -4 -11 -37 -33 -41 -35 -31 15 -108 15 -24 15 -25
-2 -25 -11 0 -30 16 -43 35 -27 39 -41 37 -41 -6 0 -22 -5 -29 -20 -29 -18 0
-20 7 -20 85 0 78 2 85 20 85 16 0 20 -7 20 -35z m138 -322 c3 -10 -129 -13
-637 -13 -353 0 -641 4 -641 8 0 5 3 12 7 15 3 4 290 6 636 5 494 -2 631 -6
635 -15z"/>
<path d="M857 492 c-35 -39 -14 -102 34 -102 22 0 32 6 39 26 14 37 12 52 -10
74 -25 25 -42 25 -63 2z"/>
<path d="M1046 494 c-19 -18 -21 -75 -4 -92 15 -15 51 -15 66 0 29 29 5 108
-33 108 -7 0 -21 -7 -29 -16z"/>
<path d="M690 485 c0 -20 5 -25 24 -25 27 0 40 22 23 39 -21 21 -47 13 -47
-14z"/>
<path d="M690 415 c0 -21 5 -25 30 -25 23 0 30 5 30 19 0 19 -18 31 -46 31 -8
0 -14 -10 -14 -25z"/>
</g>
</svg>
